<?xml version="1.0" encoding="UTF-8" standalone="no"?>
<svg
   xmlns:dc="http://purl.org/dc/elements/1.1/"
   xmlns:cc="http://creativecommons.org/ns#"
   xmlns:rdf="http://www.w3.org/1999/02/22-rdf-syntax-ns#"
   xmlns:svg="http://www.w3.org/2000/svg"
   xmlns="http://www.w3.org/2000/svg"
   xmlns:xlink="http://www.w3.org/1999/xlink"
   xmlns:sodipodi="http://sodipodi.sourceforge.net/DTD/sodipodi-0.dtd"
   xmlns:inkscape="http://www.inkscape.org/namespaces/inkscape"
   id="svg20"
   version="1.1"
   viewBox="0 0 105.8 105.8"
   height="106"
   width="106"
   sodipodi:docname="artstation-optimized.svg"
   inkscape:version="0.92.1 r15371">
  <sodipodi:namedview
     pagecolor="#ffffff"
     bordercolor="#666666"
     borderopacity="1"
     objecttolerance="10"
     gridtolerance="10"
     guidetolerance="10"
     inkscape:pageopacity="0"
     inkscape:pageshadow="2"
     inkscape:window-width="1920"
     inkscape:window-height="1017"
     id="namedview11"
     showgrid="false"
     inkscape:snap-page="true"
     inkscape:zoom="2.2264151"
     inkscape:cx="53"
     inkscape:cy="53"
     inkscape:window-x="-8"
     inkscape:window-y="-8"
     inkscape:window-maximized="1"
     inkscape:current-layer="svg20" />
  <metadata
     id="metadata26">
    <rdf:RDF>
      <cc:Work
         rdf:about="">
        <dc:format>image/svg+xml</dc:format>
        <dc:type
           rdf:resource="http://purl.org/dc/dcmitype/StillImage" />
        <dc:title />
      </cc:Work>
    </rdf:RDF>
  </metadata>
  <defs
     id="defs24">
    <defs
       id="defs6">
      <rect
         width="208.8"
         height="195.9"
         id="rect4" />
    </defs>
    <clipPath
       id="clipPath10">
      <use
         xlink:href="#XMLID_1_"
         width="100"
         height="100"
         id="use8" />
    </clipPath>
  </defs>
  <style
     id="style2">.a{clip-path:url(#XMLID_3_);fill:#13aff0;}</style>
  <path
     style="opacity:1;fill:#000000;fill-opacity:1;stroke:none;stroke-width:7.55905533;stroke-linecap:round;stroke-linejoin:round;stroke-miterlimit:4;stroke-dasharray:none;stroke-dashoffset:0;stroke-opacity:1"
     d="M 41.560547 6.3613281 L 95.363281 99.537109 L 103.87891 84.810547 C 105.56708 82.03003 105.97338 80.819401 105.98047 78.359375 C 105.97304 76.269743 105.37452 74.280507 104.2793 72.587891 L 69.513672 12.072266 C 67.710269 8.6658376 64.203454 6.3613281 60.095703 6.3613281 L 41.560547 6.3613281 z M 105.98047 78.359375 C 105.98052 78.372458 105.98242 78.385344 105.98242 78.398438 L 105.98242 78.296875 C 105.98242 78.318996 105.98053 78.337455 105.98047 78.359375 z M 32.845703 21.490234 L 8.7988281 63.068359 L 56.791016 63.068359 L 32.845703 21.490234 z M 0 78.296875 L 0 78.328125 L 8.9003906 93.726562 C 10.703793 97.233181 14.310218 99.638672 18.417969 99.638672 L 77.830078 99.638672 L 65.505859 78.296875 L 0 78.296875 z "
     transform="scale(0.99811321)"
     id="rect4488" />
</svg>
