<svg xmlns="http://www.w3.org/2000/svg" data-name="Logo — FIXED" viewBox="0 0 250 250" width="250" height="250"><defs><style>  .cls-1{fill:none;}.cls-2{fill:#1da1f2;}</style></defs><title>  Twitter_Logo_Blue</title><path class="cls-2" d="m78.6 226.6c94.3 0 145.9-78.2 145.9-145.9 0-2.2 0-4.4-0.1-6.6a104.4 104.4 0 0 0 25.6-26.5 102.4 102.4 0 0 1-29.5 8.1 51.5 51.5 0 0 0 22.6-28.4 102.8 102.8 0 0 1-32.6 12.4 51.3 51.3 0 0 0-87.4 46.8 145.6 145.6 0 0 1-105.7-53.6 51.3 51.3 0 0 0 15.9 68.5 50.9 50.9 0 0 1-23.3-6.4c0 0.2 0 0.4 0 0.7a51.3 51.3 0 0 0 41.2 50.3 51.2 51.2 0 0 1-23.2 0.9 51.4 51.4 0 0 0 47.9 35.6 102.9 102.9 0 0 1-63.7 22A104.4 104.4 0 0 1 0 203.5a145.2 145.2 0 0 0 78.6 23" fill="#1da1f2"/></svg>